<svg version="1.1" xmlns="http://www.w3.org/2000/svg" xmlns:xlink="http://www.w3.org/1999/xlink" width="48" height="48"><defs><linearGradient x1="13.40868" y1="12.23187" x2="67.38226" y2="68.55907" gradientUnits="userSpaceOnUse" id="color-1"><stop offset="0" stop-color="#000000" stop-opacity="0.33"></stop><stop offset="1" stop-color="#000000" stop-opacity="0"></stop></linearGradient><filter id="dropshadow-base"><feColorMatrix type="matrix" values="0 0 0 0 0  0 0 0 0 0  0 0 0 0 0  0 0 0 .8 0"></feColorMatrix> <feOffset dx="0" dy="1"></feOffset> <feGaussianBlur stdDeviation="1"></feGaussianBlur> <feComposite in="SourceGraphic"></feComposite></filter><filter id="dropshadow-banner" x="-10%" y="-10%" width="120%" height="130%"><feColorMatrix type="matrix" values="0 0 0 0 0  0 0 0 0 0  0 0 0 0 0  0 0 0 .4 0"></feColorMatrix> <feOffset dx="0" dy="1"></feOffset> <feGaussianBlur stdDeviation="0.5"></feGaussianBlur> <feComposite in="SourceGraphic"></feComposite></filter></defs><g fill="none" fill-rule="nonzero" stroke="none" stroke-width="none" stroke-linecap="butt" stroke-linejoin="miter" stroke-miterlimit="10" stroke-dasharray="" stroke-dashoffset="0" font-family="none" font-weight="none" font-size="none" text-anchor="none" style="mix-blend-mode: normal"><path d="M2,24c0,-12.15026 9.84974,-22 22,-22c12.15026,0 22,9.84974 22,22c0,12.15026 -9.84974,22 -22,22c-12.15026,0 -22,-9.84974 -22,-22z" id="base 1 5" fill="#ffc107" stroke-width="1"></path><path d="M14.09785,35.07896c-0.42586,-0.42586 -0.68917,-1.01427 -0.68917,-1.66446l0.01177,-16.47539c0,-1.30038 1.04148,-2.35363 2.34186,-2.35363h1.17681v-2.35363h2.35363l2.35363,2.35363h7.06088v-2.35363h2.35363l14.74009,14.74009c-1.40746,10.42258 -10.11353,18.52919 -20.80425,19.00587z" fill="url(#color-1)" stroke-width="1"></path><path d="M32.23769,14.58549h-1.17681v-2.35363h-2.35363v2.35363h-9.41451v-2.35363h-2.35363v2.35363h-1.17681c-1.30038,0 -2.34186,1.05325 -2.34186,2.35363l-0.01177,16.47539c0,1.30038 1.05325,2.35363 2.35363,2.35363h16.47539c1.30038,0 2.35363,-1.05325 2.35363,-2.35363v-16.47539c0,-1.30038 -1.05325,-2.35363 -2.35363,-2.35363zM32.23769,33.41451h-16.47539v-12.94495h16.47539zM18.11593,22.82319h5.88407v5.88407h-5.88407z" fill="none" stroke-width="0"></path><path d="M34.59132,16.93912v16.47539c0,1.30038 -1.05325,2.35363 -2.35363,2.35363h-16.47539c-1.30038,0 -2.35363,-1.05325 -2.35363,-2.35363l0.01177,-16.47539c0,-1.30038 1.04148,-2.35363 2.34186,-2.35363h1.17681v-2.35363h2.35363v2.35363h9.41451v-2.35363h2.35363v2.35363h1.17681c1.30038,0 2.35363,1.05325 2.35363,2.35363zM32.23769,20.46956h-16.47539v12.94495h16.47539zM18.11593,22.82319h5.88407v5.88407h-5.88407z" fill="#ffffff" stroke-width="0"></path><path d="M2,24c0,-12.15026 9.84974,-22 22,-22c12.15026,0 22,9.84974 22,22c0,12.15026 -9.84974,22 -22,22c-12.15026,0 -22,-9.84974 -22,-22z" id="base 1 1 1" fill="none" stroke-width="1"></path><g fill="#000000" stroke-width="1" font-family="Roboto, sans-serif" font-weight="normal" font-size="14" text-anchor="start"></g><rect x="2" y="2" width="44" height="22" fill="none" stroke-width="1"></rect><path d="M2,24v-22h44v22z" fill="none" stroke-width="1"></path><path d="M2,24v-22h44v22z" fill="none" stroke-width="1"></path><path d="M2,24v-22h44v22z" fill="none" stroke-width="1"></path><path d="M2,24v-22h44v22z" fill="none" stroke-width="1"></path></g></svg>